<svg xmlns="http://www.w3.org/2000/svg" viewBox="0 0 512 512">
  <defs>
    <style>
    .path{
      fill: #064871;
    }
    </style>
  </defs>
  <g id="icono">
    <path class="path" d="M370.88,107.24a13.25,13.25,0,1,1,13.24,13.25A13.24,13.24,0,0,1,370.88,107.24ZM89.77,397.05c-8.16,13.58-18.7,27-29.48,29.43-.58.14-39.23,12.22-55.72-24.15C-12,365.75,20.42,345.68,40,348a12.94,12.94,0,0,1,2.16-.19,13.26,13.26,0,1,1-10.84,5.64c-6.15.63-12.6,4.17-17.23,12.67C-1.64,395,22.21,419.85,42.4,418.2c19.69-1.61,37.4-22.54,47.4-37.47,1.29-22.12,3.36-44.53,5.25-66.71l1.34-14.21c.18-2.26.36-4.5.54-6.75C80,294.72,68.5,295.79,65.52,296c-15.67.9,4.83-16,4.83-16a254.38,254.38,0,0,1,28-5.6c1.17-15.87,2.19-31.41,2.88-46.33l26.43-3c-1.92,19.12-3.29,32.31-4.72,46.38C159,268,330.87,249.57,350.64,245.22c0,0,9.17.11,16.79-12.62,3-5,6.9-1.26,10.69,2.33s6.26,25.28-19.62,29.85c-18.86,3.33-157.63,17.9-237.5,25.9q-.31,3.1-.64,6.43L118.86,310c-.68,6-1.57,12.2-2.35,19.32-3.29,29.16-5.82,58.92,2,58,4.88-.55,12.73-20.77,18.24-36.87,4.1-36.39,20.78-62.09,38-64,20.39-2.3,31.27,15.75,26.54,46.22-4.43,27-20.6,46.54-37.43,46.17,2.83,9,7.89,13.62,14.61,12.86,14.49-1.64,25.32-22.05,34.68-49.65,4.06-36.49,20.78-62.27,38-64.21,20.38-2.3,31.48,15.72,26.53,46.21-1.65,9.48-27.63,12.42-26.2,7,2.87-10.75,3.06-29.15-.74-28.72-5.6.64-11.29,20.55-12.75,43.85s5.45,38.16,16.87,36.87c14.56-1.65,25.42-22.24,34.81-50,4.77-38.5,19-61.7,31.58-63.12,9-1,13.11,7.59,15.34,19.36a84.88,84.88,0,0,1,3.29-13.07l21.95-2.48c-3.76,26.95-14.36,87.79-6.07,86.85,5.6-.63,15.09-27.09,20.48-43.58,0,0,2.89-17.61,21.31-10.1,23.47,9.58,22.12,12,25.29-2.64,1.47-6.8.89-9.3.89-9.3l-2.46-14.37,16-35.25L467,261.89,448.71,296l-14.17,3.61-8,7s-3,22.1-22.85,11.72c-16.84-8.78-21.66-1.57-22,.32-8.88,33.88-23.55,72.73-38.11,74.36-8.73,1-13.92-6.81-15.14-17.56-5,12.13-12.18,20.65-21.81,21.74-10.4,1.17-17.64-15.77-18.3-39.54-8.85,23.89-21.9,46.79-40.76,48.92-13.94,1.57-32.47-9.6-35-42.09-8.85,24.52-22.08,48.52-41.41,50.7-13.91,1.57-32.38-9.53-35-41.84-8.5,24.35-19.27,45.24-29.86,46.44C97.81,420.73,91.29,412.82,89.77,397.05Zm227.86-26.29c4.06-.23,8.74-17.08,10.74-37.48,2-20.64.34-37.23-3.72-37s-8.73,17.09-10.74,37.49C311.94,354.4,313.58,371,317.63,370.76Zm-156.23-5.5c5.7-3.82,12.1-15.42,14.95-34.34,1.73-10.85,1.78-20.38-2-19.95-5.59.63-11.28,20.55-12.74,43.84A98,98,0,0,0,161.4,365.26ZM353.79,155c-1.73,23.77-4.24,49.71,2.32,48.69,4-.62,9.11-17.62,13-31,.88-13.44,2.12-28.22,2.86-42.32l20.22-3.13c-1.49,26.53-8.22,72.14-2.21,71.21,3.95-.61,9.65-17.25,13.72-30.58,2.55-31.82,13.42-51.4,23.69-53,7.28-1.13,11,5.76,13.19,15.31a68.11,68.11,0,0,1,2.24-10.8l17.85-2.76c-2.16,22.15-8.76,72.23-2,71.18,4.56-.7,11.42-22.65,15.27-36.3l4.47,1.17c-6.1,28-16.78,60.23-28.62,62.07-7.1,1.09-11.61-5.11-13-13.85-3.66,10.08-9.26,17.29-17.09,18.5-8.42,1.31-14.88-12.17-16.27-31.44-6.06,19.52-14,36.12-22.35,37.42s-12.65-11.47-12.88-30.61c-6,18.9-13.72,34.74-21.91,36-6.38,1-10.74-4.3-12.46-15.41-3.8,11.59-10.12,18.91-17.59,20.07-8.46,1.31-14.95-12.3-16.29-31.71-6.42,19.83-16.31,39-31.65,41.38-12.93,2-31.28-9.33-30.54-45.45.65-33.11,14.21-57.59,29.14-59.91,16.58-2.56,26.08,11.82,23.25,36.88-2.71,22.24-15.26,38.73-29,39,2.61,7.24,6.9,10.86,12.36,10,11.85-1.84,20-19,26.76-42.08,2.6-31.62,13.44-51.07,23.67-52.65,5.64-.87,9.21,2.86,11.47,9,.84-23.45,1.22-46.26.26-65.69l23.14-3.59C355.49,102.17,356.69,113.55,353.79,155Zm-84,21c1-8.93.77-16.72-2.33-16.24-4.55.7-8.53,17.17-8.93,36.27a73.69,73.69,0,0,0,.21,8.54C263.23,201.33,268.07,191.63,269.76,176.07Zm57.88-23.7c-3.31.32-6.56,14.25-7.51,31-.92,16.93,1,30.44,4.3,30.11s6.55-14.26,7.5-31C332.85,165.54,331,152,327.64,152.37Zm100.25,45.08c3.31-.32,6.55-14.26,7.51-31,.91-16.93-1-30.44-4.3-30.12s-6.55,14.26-7.5,31C422.68,184.27,424.58,197.78,427.89,197.45ZM53.61,223c27.75,23,69.38-8.54,72.58-30.42s-12.81-31.48-21.88-34.15-6.94,3.2-6.94,3.2,16,1.07,17.39,14.73c.94,9.58-13.65,37-37.67,33.3s-19.75-32.88-16-45.36c4-13.32,14.44-27.21,45.37-34.15,6.89-1.55,17-3.76,28.74-6.32,0,19.82.82,55.12.59,71.83,0,3.71-1.06,61.24-3.35,65.9,3.9-.86,19.66-3.22,22.06-3.43,1.43-.13,4-55.36,4-55.36,3.8-35.65,9.45-54.62,14.91-55.46,8.38-1.3-.81,55-1.2,110.23l22.22-3.44s.95-25.15,3-61.27c3.67-29.29,9.06-45.06,14.17-45.84,8.37-1.3-.87,52.17-1.14,104.62l22.22-3.44s-2.35-30.78,2.76-73.73c3.84-31.74-2.58-52.76-16.79-50.55-8.93,1.38-16,12.17-20.5,27.79-1.66-19.14-7.17-30.6-17.55-29-12.39,1.92-21.6,23.12-24.27,50.39-1-6.15-.3-34.44-.11-53.81,38.76-8.37,85.17-18.23,102.27-21.66,49.62-9.93,108.68-36.08,96.06-54.43C346,30.64,309.75,7.86,263.86,7.86A247.59,247.59,0,0,0,75.33,94.66c-7,8.16,38.57,6.86,46.37,0C159.6,61.22,209.38,39.46,263.86,41c22.34.61,60.84,3.84,70.85,12.69,11,9.69-76.18,36-169.57,42.38s-111,34.67-120.6,49.61S25.87,200.06,53.61,223Zm425.3,33c0,118.77-96.28,215.05-215,215.05a214.34,214.34,0,0,1-86.17-18c-11-4.82,169.46-23.27,200.9-30.49,0,0,14.41-2.15,13.34-26.15-.23-5.25-5.72-5-8.54.54-4.93,9.72-35.18,13.64-35.18,13.64L95.77,438.53a247.25,247.25,0,0,0,168.09,65.61C400.9,504.14,512,393,512,256v-7.09Zm-346.76,5.88c.1,0,.2-.11.29-.31C131.46,261.79,131.22,261.92,132.15,261.88Zm318.32-34.69,25.28,14.57-9.9,17.65-25.41-14.08Zm10,20.12,3.61,1.69,2-3.51-3.48-2.19Zm-9.22-9.71-2.15,4,3.61,1.69,2-3.51Z"/>
  </g>
</svg>